<svg version="1" xmlns="http://www.w3.org/2000/svg" width="1365.333" height="1365.333" viewBox="0 0 1024.000000 1024.000000"><path d="M356.5 263.6c-11.3 1-22.5 4.8-32.4 11.1-3.3 2.1-19.9 17.8-39.6 37.4L250.4 346H98v332h41.3c44.1 0 50.9-.6 59-4.7 10.5-5.3 20.9-18.6 22.2-28.5 1.3-9.2 1-8.8 7-8.8h5.5l54.9 49c30.2 27 57.7 51.2 61.2 53.9 25.9 19.5 61.4 26.3 94.8 18 9.3-2.3 22.3-7.9 29.3-12.6l5.4-3.6c.6-.4 3.5 1.2 6.5 3.5 6.8 5.1 21.4 12.1 29.9 14.3 8.4 2.2 27.1 2.3 36 .1 15.4-3.7 26.2-9.7 37.5-20.8l8-7.9 7.5 2.3c11.2 3.4 29.4 3.2 40.3-.4 10.6-3.6 20.8-9.9 28.7-17.7 10-10.1 43.2-52.1 47.3-59.8 1.9-3.7 4.3-9.4 5.2-12.6l1.6-5.7h74.8l.6 3.7c1.8 11.6 5.6 19.2 13.2 26.4 6.1 5.8 13.7 9.6 22 10.9 3.2.6 24.4 1 47.1 1H926V346H769.5L735 311.1l-34.5-34.9-9.6-4.7c-17.8-8.6-2.2-7.9-175.9-8-85-.1-156.3 0-158.5.1zm79.5 62.7c-.8.8-12.5 11.3-26 23.4-27.6 24.8-32.9 30.2-39.4 40.7-10.2 16.3-14.1 31.6-13.3 53.1.6 16.1 2.5 24.1 8.9 37 9.6 19.3 23.2 32.3 45.5 43.4 12.5 6.3 19 7.5 39.3 7.5 15.5 0 18.4-.2 25-2.3 11.2-3.4 21.4-9.1 32.4-18.1 5.4-4.4 11.1-9 12.7-10l2.7-2 32.4 26.2c17.7 14.4 49.2 39.7 69.8 56.3 20.6 16.6 38.4 31.2 39.5 32.5 2.9 3.2 2.4 9.1-1.1 13.7-7.7 10.3-31.9 39.5-35 42.2-6 5.3-6.4 5.1-31.4-14.7-6.3-5.1-11.8-9.2-12.1-9.2-.3 0-7.7 8.6-16.5 19.2-21.4 25.9-27.7 32.5-32.2 33.8-6.3 1.7-10.2-.2-23-11.2-32.3-27.9-38-32.8-38.4-32.8-.3 0-5.5 6-11.7 13.4-16.9 20.4-22.9 25.1-36.6 28.6-13.4 3.4-24.8 2.2-36.4-4.1-3.8-2-26.4-21.8-69.5-60.9l-63.9-58H222V408h54.5l39.5-39.6c26.1-26.2 40.9-40.2 43.5-41.5 3.7-1.7 6.9-1.9 41-1.9 31 0 36.7.2 35.5 1.3zm227 .7c1.4.8 20.1 19.4 41.5 41.2l39 39.7h29.3l29.2.1v166h-89.4l-6.6-6.4c-5.2-5.1-88.9-73.1-128.8-104.6l-8.2-6.5 11.4-11c8.5-8.2 11.7-12 12.6-14.9 2.4-7.5-1.3-14.2-16.7-30.1-10.8-11.2-17-13.6-25.5-10.1-3.9 1.7-5.7 3.2-48 42.4-17 15.7-32.3 29.5-34 30.7-8.8 5.8-20 7.7-29.4 5-7.6-2.1-15.2-9.7-18.4-18.3-3-7.8-2.6-19 .9-24.5 2.2-3.5 86.4-82.2 95.6-89.3 7.6-5.9 17.6-9.9 27-10.7 2.2-.2 29.2-.4 60-.3 47.9.1 56.4.3 58.5 1.6zM167.8 596.5c15.6 6.6 16.6 28.3 1.7 37.1-3.3 1.9-5.8 2.5-9.9 2.5-12.7 0-21.5-9.7-20.4-22.7 1.1-13.6 15.7-22.2 28.6-16.9zm706.3.8c10.1 5.4 13.8 17.6 8.3 27.6-5.4 10.1-16.4 14-26.7 9.6-12.6-5.3-15.8-24.7-5.5-34.2 6-5.6 16.4-6.9 23.9-3z"/></svg>